<svg width="235" height="265" viewBox="0 0 235 265" fill="none" xmlns="http://www.w3.org/2000/svg"><mask id="a" style="mask-type:luminance" maskUnits="userSpaceOnUse" x="15" y="0" width="220" height="265"><path d="M15.586 0h218.478v265H15.586z" fill="#fff"/></mask><g mask="url(#a)"><mask id="b" style="mask-type:luminance" maskUnits="userSpaceOnUse" x="-23" y="-21" width="279" height="305"><path d="m-22.387 66.063 196.695-86.236 81.328 217.469-196.695 86.236z" fill="#fff"/></mask><g mask="url(#b)"><mask id="c" style="mask-type:luminance" maskUnits="userSpaceOnUse" x="-23" y="-21" width="279" height="305"><path d="m-22.389 66.063 196.695-86.236 81.328 217.469-196.695 86.236z" fill="#fff"/></mask><g mask="url(#c)"><path d="M84.268 261.324c.471.949 1.003 1.959 1.926 2.414 1.157.575 2.537.106 3.759-.364l126.569-49.071c4.869-1.884 9.985-3.959 13.254-8.231 6.37-8.322 2.863-20.34-.91-30.015L163.343 8.125c-.732-1.859-1.497-3.782-2.919-5.11-4.552-4.252-11.659.09-16.556 4.155-18.267 15.17-38.46 27.485-59.297 38.104-10.344 5.277-20.865 10.14-31.465 14.785-9.299 4.075-21.046 6.858-29.278 13.154-16.555 12.675-.387 30.888 5.909 44.552 10.265 22.284 17.973 45.774 25.785 69.144 8.446 25.293 16.957 50.677 28.746 74.415" fill="#61dafb"/></g></g></g><mask id="d" style="mask-type:luminance" maskUnits="userSpaceOnUse" x="0" y="25" width="215" height="239"><path d="M.064 25.854h214.897v237.853H.064z" fill="#fff"/></mask><g mask="url(#d)"><mask id="e" style="mask-type:luminance" maskUnits="userSpaceOnUse" x="-23" y="-21" width="279" height="305"><path d="m-22.387 66.063 196.695-86.236 81.328 217.469-196.695 86.236z" fill="#fff"/></mask><g mask="url(#e)"><mask id="f" style="mask-type:luminance" maskUnits="userSpaceOnUse" x="-23" y="-21" width="279" height="305"><path d="m-22.389 66.063 196.695-86.236 81.328 217.469-196.695 86.236z" fill="#fff"/></mask><g mask="url(#f)"><path d="m.338 92.619 150.754-66.094 63.835 170.69-150.754 66.098z" fill="#53c1de"/></g></g></g><mask id="g" style="mask-type:luminance" maskUnits="userSpaceOnUse" x="62" y="36" width="28" height="63"><path d="M62.146 36.195h27.46v62.049h-27.46z" fill="#fff"/></mask><g mask="url(#g)"><mask id="h" style="mask-type:luminance" maskUnits="userSpaceOnUse" x="-23" y="-21" width="279" height="305"><path d="m-22.387 66.063 196.695-86.236 81.328 217.469-196.695 86.236z" fill="#fff"/></mask><g mask="url(#h)"><mask id="i" style="mask-type:luminance" maskUnits="userSpaceOnUse" x="-23" y="-21" width="279" height="305"><path d="m-22.389 66.063 196.695-86.236 81.328 217.469-196.695 86.236z" fill="#fff"/></mask><g mask="url(#i)"><path d="M66.396 53.732a53 53 0 0 1-1.162-6.64c-.172-1.909-.167-3.959.528-5.696a5.16 5.16 0 0 1 1.268-1.919c-.093.086-.047.02.103.03q.243 0 .48.046c.457.09.886.258 1.282.515.164.106.308.248.467.364.154.12.14.151.065.045q.148.252.261.525L70.78 43.2a370 370 0 0 1 1.996 4.125c5.214 10.892 9.892 22.198 12.443 34.19.993 4.626 1.674 10.317-1.87 13.912l1.072-.303c-2.835-.742-4.486-3.433-5.629-6.155-1.291-3.08-2.075-6.393-3.409-9.423-.77-1.747-3.353-.626-2.583 1.137 2.308 5.246 3.101 12.169 7.76 15.784 1.11.859 3.432 2.384 4.673 1.228a11.1 11.1 0 0 0 2.667-4.116c1.143-3 1.059-6.352.677-9.508a59 59 0 0 0-1.46-6.842 104 104 0 0 0-1.796-6.378c-1.282-4.176-2.784-8.276-4.43-12.306-1.693-4.13-3.535-8.19-5.447-12.2a570 570 0 0 0-2.896-5.933 7 7 0 0 0-1.614-2.454 6.2 6.2 0 0 0-2.355-1.217 3.96 3.96 0 0 0-2.555-.03q-1.133.532-1.82 1.646-1.446 2.099-1.725 4.712c-.461 3.686.35 7.448 1.157 11.013.056.403.233.737.532.99q.446.386 1.011.333a1.3 1.3 0 0 0 .514-.182c.163-.096.298-.227.415-.379a1.6 1.6 0 0 0 .247-.525c.046-.192.065-.384.042-.586" fill="#2e7d9a"/></g></g></g><mask id="j" style="mask-type:luminance" maskUnits="userSpaceOnUse" x="174" y="98" width="45" height="135"><path d="M174.369 98.244h44.173v134.439h-44.173z" fill="#fff"/></mask><g mask="url(#j)"><mask id="k" style="mask-type:luminance" maskUnits="userSpaceOnUse" x="-23" y="-21" width="279" height="305"><path d="m-22.387 66.063 196.695-86.236 81.328 217.469-196.695 86.236z" fill="#fff"/></mask><g mask="url(#k)"><mask id="l" style="mask-type:luminance" maskUnits="userSpaceOnUse" x="-23" y="-21" width="279" height="305"><path d="M-22.385 66.063 174.31-20.173l81.328 217.469-196.695 86.236z" fill="#fff"/></mask><g mask="url(#l)"><path d="M190.674 215.242c12.769-30.646 15.236-66.664 6.781-98.997" stroke="#f0db4f" stroke-width="1.24" stroke-miterlimit="10"/></g></g></g><mask id="m" style="mask-type:luminance" maskUnits="userSpaceOnUse" x="189" y="94" width="12" height="31"><path d="M189.89 94.366h10.745v29.732H189.89z" fill="#fff"/></mask><g mask="url(#m)"><mask id="n" style="mask-type:luminance" maskUnits="userSpaceOnUse" x="-23" y="-21" width="279" height="305"><path d="m-22.387 66.063 196.695-86.236 81.328 217.469-196.695 86.236z" fill="#fff"/></mask><g mask="url(#n)"><mask id="o" style="mask-type:luminance" maskUnits="userSpaceOnUse" x="-23" y="-21" width="279" height="305"><path d="m-22.389 66.063 196.695-86.236 81.328 217.469-196.695 86.236z" fill="#fff"/></mask><g mask="url(#o)"><path d="M199.854 123.623c-3.945-3.696-6.701-8.877-8.394-14.401-1.152-3.788-1.809-8.014-.616-11.791q.406-1.675 1.749-2.616c1.357-.757 3.008.121 3.983 1.43 1.6 2.19 1.814 5.261 1.963 8.129l.966 19.214-.187-1.793" fill="#f0db4f"/></g></g></g><text x="50" y="130" font-family="Arial, sans-serif" font-size="16" font-weight="bold" fill="#2c3e50">FRONTEND</text><text x="50" y="150" font-family="Arial, sans-serif" font-size="16" font-weight="bold" fill="#2c3e50">DEVELOPMENT</text></svg>